<?xml version="1.0" encoding="UTF-8"?>
<!DOCTYPE svg  PUBLIC '-//W3C//DTD SVG 1.1//EN'  'http://www.w3.org/Graphics/SVG/1.1/DTD/svg11.dtd'>
<svg enable-background="new 0 0 128 128" version="1.1" viewBox="0 0 128 128" xml:space="preserve" xmlns="http://www.w3.org/2000/svg">
		<path d="m56.167 105h-49.562s-2.609-0.777 0-5.435 30.371-51.627 30.371-51.627 2.236-2.523 4.658-0.101 29.253 27.826 29.253 27.826l-25.713 9.352s-3.726 1.515-1.491 4.124c2.236 2.608 12.484 15.861 12.484 15.861z"/>
		<path d="m49.337 88.013l19.5 16.987h11.552l11.179-16.987s1.491-3.99 3.726 0.109 9.503 16.878 9.503 16.878h15.465s3.726-0.777 1.677-5.062-18.632-35.047-18.632-35.047-3.011-5.641-6.644-0.054l-3.663 3.86v2.515l-43.663 16.801z"/>
		<path d="m92.127 68.045l-12.484 4.658-31.302-22.917 15.659-24.409s4.091-5.403 6.886 0c2.795 5.404 21.241 42.668 21.241 42.668z"/>
</svg>
