<?xml version="1.0" encoding="UTF-8"?>
<!DOCTYPE svg  PUBLIC '-//W3C//DTD SVG 1.1//EN'  'http://www.w3.org/Graphics/SVG/1.1/DTD/svg11.dtd'>
<svg enable-background="new 0 0 128 128" version="1.1" viewBox="0 0 128 128" xml:space="preserve" xmlns="http://www.w3.org/2000/svg">
	<path d="m66 10h5v11h12v-11h7.992s3.998-0.429 3.998 2.337c0 4.097 0.095 23.589 0.095 23.589s-3.046 9.074-9.233 9.074h-44.404c-6.187 0-8.4-9.404-8.4-9.404s0.095-18.647 0.095-22.745c0-2.945 3.998-2.851 3.998-2.851h5.859v11h11v-11h12m-1.278 87h-31.722v-8.082c9-9.614 10-25.985 10-25.985v-14.933h39v14.933s1 16.372 10 25.985v8.082h-27.278zm-1.722-37.351l-6 6.52v14.831h12v-14.831l-6-6.52zm-39 43.261v11.208c0 4.64 5.314 5.882 5.314 5.882s66.533 0 70.531 0 3.156-5.668 3.156-5.668 0-6.282 0-11.065c0-3.642-4.012-2.267-4.012-2.267h-69.674c-1e-3 0-5.315-1.167-5.315 1.91z"/>
</svg>
