<?xml version="1.0" encoding="UTF-8"?>
<!DOCTYPE svg  PUBLIC '-//W3C//DTD SVG 1.1//EN'  'http://www.w3.org/Graphics/SVG/1.1/DTD/svg11.dtd'>
<svg enable-background="new 0 0 128 128" version="1.1" viewBox="0 0 128 128" xml:space="preserve" xmlns="http://www.w3.org/2000/svg">
	<path d="m64 11.689l11.582 14.286 2.297 11.601 12.834-12.978 9.186 12.289 5.674 22.559s4.188 2.431 13.915-4.324c0 0 5.404 6.901-10.132 19.195l3.242 15.683h4.593l0.405 11h-4.728l-15.941 15.59-13.779-13.59h-38.296l-13.78 13.59-15.941-15.59h-4.728l0.405-11h4.593l3.242-15.682c-15.535-12.294-10.131-18.953-10.131-18.953 9.727 6.755 13.915 4.203 13.915 4.203l5.674-22.619 9.186-12.32 12.834 12.962 2.297-11.609 11.582-14.293zm7.8 86.311h5.944c0.135-6-2.252-10.429-2.252-10.429s1.9-0.373 2.636-0.158c0.969 0.282 1.732 0.828 2.947 0.377 1.216-0.45 2.207-3.035 2.702-3.845 0.495-0.811-2.342-3.326-2.342-3.326 0-1.576 6.575-2.803 6.575-13.61 0-20.624-23.236-20.343-23.236-20.343s-23.236-0.298-23.236 20.326c0 10.808 6.575 12.009 6.575 13.586 0 0-2.837 2.47-2.342 3.28 0.495 0.811 1.486 3.306 2.702 3.757 1.216 0.45 1.979-0.271 2.947-0.553 0.736-0.215 2.636 0.509 2.636 0.509s-2.385 4.429-2.25 10.429h14.59s-0.766-5.494 2.769-5.494 2.635 5.494 2.635 5.494zm-4.233-25.226l4.098 6.349s7.499-1.742 8.151-7.498c0.405-3.58-1.897-3.405-3.738-3.265-2.363 0.181-7.475 2.433-8.511 4.414zm-13.508-4.413c-1.841-0.14-4.143-0.315-3.738 3.265 0.652 5.756 8.151 7.498 8.151 7.498l4.098-6.349c-1.036-1.982-6.148-4.234-8.511-4.414zm11.222 9.002s-3.299 0.637-3.479 9.637h6.889c-0.179-9-3.41-9.637-3.41-9.637z"/>
</svg>
