<?xml version="1.0" encoding="UTF-8"?>
<!DOCTYPE svg  PUBLIC '-//W3C//DTD SVG 1.1//EN'  'http://www.w3.org/Graphics/SVG/1.1/DTD/svg11.dtd'>
<svg enable-background="new 0 0 128 128" version="1.1" viewBox="0 0 128 128" xml:space="preserve" xmlns="http://www.w3.org/2000/svg">
		<path d="m77.256 118h34.744s-6.53-32.883-20.083-44.342l-1.971 1.762-0.031 3.468-7.67 7.325-3.486-0.808-5.754 4.226-0.37 3.447-2.279 2.142c0 1e-3 7.885 14.78 6.9 22.78z"/>
		<path d="m56.803 71.392s11.5-4.465 17.619-15.401c0 0-10.58-12.067-38.179-8.617 0 0-1.646-1.353-2.318-1.359-2.256-0.019-6.881 2.4-7.862 4.432-0.295 0.61 0 2.711 0 2.711s-2.772 3.511-3.635 5.359c0 0-2.382-0.546-2.834 0-1.697 2.048-3.696 6.9-2.834 9.795 0.195 0.653 2.597 1.172 2.597 1.172s0.113 5.234 1.222 8.068c0 0-1.837 2.125-1.679 3.049 0.447 2.603 7.115 9.61 7.947 9.518 0.986-0.11 3.342-2.095 3.342-2.095s6.037 4.928 7.885 5.298c0 0-0.169 2.235 0.246 2.803 1.047 1.432 9.04 3.511 10.473 2.618 0.625-0.39 1.355-2.618 1.355-2.618s8.748-1.078 9.98-1.694c0 0 0.377 1.526 0.77 1.694 2.264 0.97 9.795-2.68 10.38-4.713l0.2-4.158 6.237-4.435 3.301 0.524 5.984-5.914v-3.943l4.153-4.435 3.986 0.246s4.242-5.175 3.995-8.748l-1.575-1.232 1.625-7.885 2.707-1.602s0.989-6.776 3e-3 -9.117l-1.846-0.986 0.247-7.885 1.356-1.109s0.37-5.668-1.109-7.762l-2.341-0.739s-5.175-12.321-21.191-12.567-22.404 10.34-22.547 16.633c-0.123 5.421 0.616 6.776 3.203 6.9 1.255 0.06 2.218-1.109 5.175-7.639s11.212-5.421 12.813-5.421 11.015 1.362 9.98 13.553c-1.109 13.06-14.908 40.905-37.085 41.644 0 0-7.291 0.041-7.269-4.559 0.012-2.464 1.478-4.066 4.559-3.696s6.14 1.141 10.964 4.312z"/>
</svg>
